{
	"asset":{
		"generator":"Khronos glTF Blender I/O v4.2.70",
		"version":"2.0"
	},
	"scene":0,
	"scenes":[
		{
			"name":"Scene",
			"nodes":[
				0,
				1,
				2
			]
		}
	],
	"nodes":[
		{
			"mesh":0,
			"name":"Cylinder"
		},
		{
			"mesh":1,
			"name":"Icosphere",
			"translation":[
				0,
				6.041716575622559,
				0
			]
		},
		{
			"mesh":2,
			"name":"Icosphere.001",
			"scale":[
				0.7151615023612976,
				0.7151615023612976,
				0.7151615023612976
			],
			"translation":[
				1.9398391246795654,
				3.9368033409118652,
				1.1781591176986694
			]
		}
	],
	"materials":[
		{
			"doubleSided":true,
			"name":"TreeTrunk",
			"pbrMetallicRoughness":{
				"baseColorFactor":[
					0.3485085070133209,
					0.13555629551410675,
					0.04248589277267456,
					1
				],
				"metallicFactor":0,
				"roughnessFactor":0.5
			}
		},
		{
			"doubleSided":true,
			"name":"Leaves",
			"pbrMetallicRoughness":{
				"baseColorFactor":[
					0.07582763582468033,
					0.4626750349998474,
					0.06569601595401764,
					1
				],
				"metallicFactor":0,
				"roughnessFactor":0.5
			}
		}
	],
	"meshes":[
		{
			"name":"Cylinder",
			"primitives":[
				{
					"attributes":{
						"POSITION":0,
						"NORMAL":1,
						"TEXCOORD_0":2
					},
					"indices":3,
					"material":0
				}
			]
		},
		{
			"name":"Icosphere",
			"primitives":[
				{
					"attributes":{
						"POSITION":4,
						"NORMAL":5,
						"TEXCOORD_0":6
					},
					"indices":7,
					"material":1
				}
			]
		},
		{
			"name":"Icosphere.001",
			"primitives":[
				{
					"attributes":{
						"POSITION":8,
						"NORMAL":9,
						"TEXCOORD_0":10
					},
					"indices":7,
					"material":1
				}
			]
		}
	],
	"accessors":[
		{
			"bufferView":0,
			"componentType":5126,
			"count":364,
			"max":[
				2.229870080947876,
				5.742755889892578,
				1.1356791257858276
			],
			"min":[
				-0.7793152332305908,
				0.2151859998703003,
				-0.5499520301818848
			],
			"type":"VEC3"
		},
		{
			"bufferView":1,
			"componentType":5126,
			"count":364,
			"type":"VEC3"
		},
		{
			"bufferView":2,
			"componentType":5126,
			"count":364,
			"type":"VEC2"
		},
		{
			"bufferView":3,
			"componentType":5123,
			"count":612,
			"type":"SCALAR"
		},
		{
			"bufferView":4,
			"componentType":5126,
			"count":240,
			"max":[
				2.291688919067383,
				2.5029523372650146,
				1.964707374572754
			],
			"min":[
				-1.4454121589660645,
				-1.4264626502990723,
				-1.964707374572754
			],
			"type":"VEC3"
		},
		{
			"bufferView":5,
			"componentType":5126,
			"count":240,
			"type":"VEC3"
		},
		{
			"bufferView":6,
			"componentType":5126,
			"count":240,
			"type":"VEC2"
		},
		{
			"bufferView":7,
			"componentType":5123,
			"count":240,
			"type":"SCALAR"
		},
		{
			"bufferView":8,
			"componentType":5126,
			"count":240,
			"max":[
				2.291688919067383,
				2.5029523372650146,
				1.964707374572754
			],
			"min":[
				-1.4454121589660645,
				-1.4264626502990723,
				-1.964707374572754
			],
			"type":"VEC3"
		},
		{
			"bufferView":9,
			"componentType":5126,
			"count":240,
			"type":"VEC3"
		},
		{
			"bufferView":10,
			"componentType":5126,
			"count":240,
			"type":"VEC2"
		}
	],
	"bufferViews":[
		{
			"buffer":0,
			"byteLength":4368,
			"byteOffset":0,
			"target":34962
		},
		{
			"buffer":0,
			"byteLength":4368,
			"byteOffset":4368,
			"target":34962
		},
		{
			"buffer":0,
			"byteLength":2912,
			"byteOffset":8736,
			"target":34962
		},
		{
			"buffer":0,
			"byteLength":1224,
			"byteOffset":11648,
			"target":34963
		},
		{
			"buffer":0,
			"byteLength":2880,
			"byteOffset":12872,
			"target":34962
		},
		{
			"buffer":0,
			"byteLength":2880,
			"byteOffset":15752,
			"target":34962
		},
		{
			"buffer":0,
			"byteLength":1920,
			"byteOffset":18632,
			"target":34962
		},
		{
			"buffer":0,
			"byteLength":480,
			"byteOffset":20552,
			"target":34963
		},
		{
			"buffer":0,
			"byteLength":2880,
			"byteOffset":21032,
			"target":34962
		},
		{
			"buffer":0,
			"byteLength":2880,
			"byteOffset":23912,
			"target":34962
		},
		{
			"buffer":0,
			"byteLength":1920,
			"byteOffset":26792,
			"target":34962
		}
	],
	"buffers":[
		{
			"byteLength":28712,
			"uri":"Tree.bin"
		}
	]
}
